# Blender v3.0.0 OBJ File: ''
# www.blender.org
mtllib box_02.mtl
o Cardboard_01_Mesh.010
v -0.927273 0.006383 -0.767880
v -0.931867 0.126908 -0.772090
v -0.682152 0.000361 -0.770802
v -0.675376 0.141270 -0.772544
v -0.685892 0.002455 -0.911761
v -0.675376 0.138506 -0.922836
v -0.932765 0.001603 -0.917548
v -0.929760 0.141585 -0.922771
v -0.931787 0.129476 -0.777047
v -0.675376 0.142194 -0.777728
v -0.675376 0.140107 -0.920571
v -0.929760 0.142993 -0.920447
v -0.927378 0.127519 -0.772199
v -0.925311 0.142604 -0.922624
v -0.927559 0.128104 -0.776945
v -0.925311 0.143900 -0.920290
v -0.680311 0.141281 -0.772550
v -0.680311 0.138527 -0.922837
v -0.680413 0.141846 -0.777643
v -0.680311 0.140128 -0.920573
v -0.924728 0.186947 -0.959291
v -0.924776 0.187828 -0.958292
v -0.681078 0.185172 -0.959277
v -0.681239 0.186133 -0.958283
v -0.924586 0.163553 -0.854846
v -0.924698 0.161607 -0.851531
v -0.678842 0.159735 -0.847838
v -0.679032 0.156031 -0.846677
v -0.920657 0.023408 -0.771836
v -0.927311 0.021477 -0.915373
v -0.698923 0.021477 -0.773849
v -0.714087 0.025924 -0.910122
v -0.848819 0.000361 -0.770802
v -0.848062 0.000000 -0.922265
v -0.848525 0.141208 -0.772509
v -0.848525 0.138390 -0.922829
v -0.848532 0.141798 -0.777630
v -0.848525 0.139994 -0.920562
v -0.848141 0.174410 -0.959016
v -0.848141 0.175201 -0.958041
v -0.848386 0.155457 -0.845994
v -0.848411 0.153061 -0.845908
v -0.848819 0.021477 -0.776231
v -0.849762 0.023546 -0.910721
v -0.765485 0.000361 -0.770802
v -0.766068 0.000529 -0.919314
v -0.762673 0.142279 -0.773046
v -0.762673 0.140824 -0.922834
v -0.762749 0.143286 -0.777915
v -0.762673 0.142304 -0.920536
v -0.760187 0.183421 -0.959254
v -0.760243 0.184311 -0.958264
v -0.761250 0.161790 -0.850767
v -0.761501 0.158942 -0.847861
v -0.765485 0.021477 -0.776231
v -0.766022 0.022561 -0.912515
vt 0.121153 0.732161
vt 0.122146 0.782396
vt 0.091826 0.782017
vt 0.205082 0.694914
vt 0.208471 0.743158
vt 0.207665 0.743717
vt 0.155120 0.847475
vt 0.154586 0.898327
vt 0.152977 0.898715
vt 0.261731 0.737293
vt 0.211258 0.743733
vt 0.210643 0.693668
vt 0.271005 0.693629
vt 0.271005 0.695468
vt 0.269222 0.695438
vt 0.183696 0.844546
vt 0.155974 0.845278
vt 0.154612 0.792273
vt 0.157163 0.743905
vt 0.155334 0.743558
vt 0.155262 0.693629
vt 0.263542 0.693629
vt 0.263451 0.736327
vt 0.267263 0.748103
vt 0.265657 0.748139
vt 0.265666 0.747298
vt 0.210421 0.743262
vt 0.271005 0.746149
vt 0.241789 0.795273
vt 0.242565 0.845188
vt 0.213131 0.844867
vt 0.213499 0.792290
vt 0.265501 0.695422
vt 0.265491 0.693629
vt 0.267111 0.693686
vt 0.193049 0.691150
vt 0.193049 0.691563
vt 0.160733 0.691679
vt 0.267027 0.695402
vt 0.230138 0.691245
vt 0.230161 0.691664
vt 0.125135 0.897488
vt 0.124419 0.847228
vt 0.121914 0.671391
vt 0.121982 0.670335
vt 0.151823 0.670747
vt 0.214025 0.913507
vt 0.213689 0.865261
vt 0.237189 0.864162
vt 0.271005 0.746952
vt 0.269258 0.746953
vt 0.245377 0.788980
vt 0.244906 0.788973
vt 0.244515 0.768628
vt 0.152663 0.827806
vt 0.152323 0.844657
vt 0.123450 0.843990
vt 0.178081 0.855261
vt 0.178127 0.855748
vt 0.157069 0.855942
vt 0.093303 0.914192
vt 0.064643 0.915140
vt 0.064180 0.898202
vt 0.183885 0.857891
vt 0.184599 0.859074
vt 0.157069 0.859049
vt 0.062392 0.698419
vt 0.062837 0.671348
vt 0.090484 0.672785
vt 0.247798 0.788980
vt 0.247637 0.787616
vt 0.247389 0.758409
vt 0.151338 0.702436
vt 0.151274 0.729614
vt 0.121582 0.730023
vt 0.247814 0.793060
vt 0.296650 0.790930
vt 0.295762 0.834194
vt 0.091186 0.827757
vt 0.090733 0.785103
vt 0.121338 0.784742
vt 0.239139 0.871888
vt 0.289875 0.871757
vt 0.291139 0.915140
vt 0.214751 0.745855
vt 0.240127 0.746538
vt 0.242565 0.783605
vt 0.062851 0.670146
vt 0.090492 0.672754
vt 0.157069 0.915140
vt 0.158865 0.864303
vt 0.184255 0.865582
vt 0.063318 0.845278
vt 0.063123 0.829188
vt 0.152942 0.914822
vt 0.125139 0.910571
vt 0.122016 0.696766
vt 0.090980 0.697547
vt 0.062746 0.730212
vt 0.062392 0.700369
vt 0.090778 0.701100
vt 0.062392 0.784345
vt 0.155262 0.788470
vt 0.161801 0.745855
vt 0.185314 0.745855
vt 0.063977 0.777171
vt 0.062392 0.776955
vt 0.064014 0.734293
vt 0.091722 0.732161
vt 0.094035 0.898711
vt 0.094709 0.847744
vt 0.263474 0.691253
vt 0.263542 0.691673
vt 0.191422 0.861023
vt 0.191350 0.861963
vt 0.157069 0.862212
vt 0.184442 0.913195
vt 0.192887 0.675301
vt 0.229113 0.675290
vt 0.239139 0.869808
vt 0.239303 0.854253
vt 0.277025 0.854150
vt 0.090249 0.727616
vt 0.121682 0.701968
vt 0.140319 0.785974
vt 0.122562 0.828603
vt 0.151763 0.671169
vt 0.151810 0.696215
vt 0.214649 0.788453
vt 0.184347 0.788980
vt 0.151234 0.782042
vt 0.150584 0.732161
vt 0.152977 0.782038
vt 0.062392 0.898214
vt 0.065663 0.848760
vt 0.269258 0.693631
vt 0.184549 0.790930
vt 0.267273 0.747259
vt 0.269258 0.746149
vt 0.160713 0.691257
vt 0.232360 0.912460
vt 0.245440 0.768440
vt 0.157128 0.854963
vt 0.158874 0.858814
vt 0.247880 0.756773
vt 0.244515 0.834136
vt 0.240540 0.908992
vt 0.091326 0.840653
vt 0.157241 0.861100
vt 0.275959 0.869805
vn -0.0002 0.0181 0.9998
vn 0.0000 0.0158 0.9999
vn -0.0000 0.0128 0.9999
vn 0.9960 -0.0728 0.0515
vn 0.0417 -0.0382 -0.9984
vn -0.9997 0.0210 -0.0122
vn -0.9997 0.0210 -0.0124
vn -0.9997 0.0210 -0.0125
vn -0.0649 0.9824 0.1752
vn -0.0752 -0.9966 0.0346
vn 0.9988 -0.0481 -0.0086
vn -0.9986 -0.0393 -0.0365
vn -0.1760 0.8420 -0.5100
vn 0.9984 -0.0490 -0.0272
vn -0.9997 0.0210 -0.0127
vn -0.0691 0.9975 -0.0146
vn 0.0000 -0.9999 -0.0149
vn 0.0010 -1.0000 -0.0006
vn 0.0000 -1.0000 -0.0011
vn 0.0054 -1.0000 0.0019
vn -0.1091 0.8834 0.4558
vn 0.1283 0.7702 -0.6248
vn 0.3051 0.9477 0.0936
vn 0.3046 0.9468 0.1035
vn 0.3051 0.9477 0.0940
vn -0.0775 0.7391 -0.6691
vn -0.0029 -0.0041 -1.0000
vn -0.0014 -0.0041 -1.0000
vn -0.0013 -0.0041 -1.0000
vn 0.0071 -0.7145 -0.6996
vn 0.0022 1.0000 0.0079
vn 0.0089 0.9999 0.0107
vn -0.0003 1.0000 0.0080
vn 0.0036 0.8165 -0.5773
vn 0.0036 0.8165 -0.5774
vn 0.0035 0.8165 -0.5773
vn -0.9993 -0.0150 -0.0340
vn -0.0144 0.6337 0.7734
vn 0.9932 0.0849 0.0792
vn 0.0134 -0.6154 -0.7881
vn 0.9988 -0.0490 0.0075
vn -0.0715 -0.9088 -0.4110
vn -0.9980 -0.0332 -0.0529
vn 0.0131 0.9705 0.2409
vn 0.0157 0.9711 0.2383
vn 0.0156 0.9710 0.2384
vn -0.9814 0.1545 0.1142
vn 0.0223 0.0840 0.9962
vn 0.9988 -0.0182 -0.0461
vn -0.0624 -0.0527 -0.9967
vn -0.0326 -0.8614 -0.5068
vn 0.0260 0.9996 -0.0146
vn 0.0359 0.6536 0.7560
vn -0.1009 -0.6332 -0.7674
vn 0.0162 -0.9758 -0.2181
vn -0.1560 0.9074 0.3903
vn -0.0609 0.0410 0.9973
vn 0.0357 -0.0370 -0.9987
vn 0.0195 0.0356 0.9992
vn 0.0399 0.0356 0.9986
vn 0.0361 -0.0259 -0.9990
vn -0.0161 0.7174 -0.6965
vn -0.0521 -0.0351 -0.9980
vn 0.0015 0.9999 0.0144
vn 0.0000 0.9999 0.0154
vn -0.0198 0.7288 0.6844
vn 0.0706 -0.7073 -0.7033
vn -0.0111 0.9817 0.1903
vn 0.0028 0.0903 0.9959
vn -0.0165 -0.9793 -0.2016
vn -0.0055 -0.0113 -0.9999
vn -0.0066 -0.0116 -0.9999
vn -0.0021 -0.0128 -0.9999
vn 0.0005 0.0137 0.9999
vn -0.0007 0.0124 0.9999
vn -0.0012 0.0124 0.9999
vn -0.0001 -0.0811 -0.9967
vn 0.0955 -0.0847 -0.9918
vn 0.0014 0.0121 0.9999
vn -0.9987 -0.0338 0.0377
vn 0.0020 0.9939 0.1104
vn -0.0188 -0.9998 0.0023
vn -0.1591 0.8631 -0.4793
vn 0.9971 -0.0761 0.0011
vn 0.0041 0.9999 -0.0120
vn 0.0241 -0.9997 -0.0012
vn 0.0064 -1.0000 0.0024
vn 0.3045 0.9467 0.1051
vn 0.1252 0.7469 -0.6530
vn -0.2023 0.9738 0.1041
vn -0.0818 0.7740 -0.6278
vn -0.0562 -0.0330 -0.9979
vn 0.0031 -0.2991 -0.9542
vn -0.0664 0.9970 0.0399
vn -1.0000 0.0082 -0.0046
vn 0.0180 0.6675 0.7444
vn 0.9999 0.0106 -0.0075
vn -0.0181 -0.6491 -0.7605
vn 0.9187 -0.3902 -0.0619
vn 0.1672 -0.9728 -0.1602
vn -0.9724 0.2241 0.0649
vn 0.0103 0.9698 0.2436
vn -0.9590 0.2833 -0.0041
vn -0.0021 0.0669 0.9978
vn 0.9975 0.0669 0.0230
vn -0.0067 -0.0116 -0.9999
vn 0.0694 -0.0363 -0.9969
vn -0.0276 0.9995 0.0156
vn 0.1169 0.7233 0.6806
vn -0.0407 -0.7079 -0.7051
vn 0.0630 -0.9847 -0.1623
vn 0.0819 0.9784 0.1899
vn 0.0078 0.0841 0.9964
vn 0.0031 -0.0139 -0.9999
vn 0.0025 -0.0139 -0.9999
vn 0.0018 0.0121 0.9999
vn 0.0001 -0.0041 -1.0000
vn -0.0173 0.7429 -0.6692
vn 0.0327 -0.7152 -0.6981
vn -0.0674 0.6688 0.7404
vn 0.0184 -0.6504 -0.7594
vn -0.0571 0.9686 0.2421
vn -0.0503 0.0682 0.9964
vn -0.0313 -0.9753 -0.2188
vn -0.0007 -0.0251 -0.9997
usemtl Box
s 1
f 45/1/1 47/2/2 35/3/3
f 5/4/4 6/5/4 11/6/4
f 7/7/5 8/8/5 14/9/5
f 9/10/6 12/11/7 7/12/8
f 4/13/9 10/14/9 19/15/9
f 33/16/10 1/17/10 7/18/10
f 10/19/11 4/20/11 3/21/11
f 1/22/12 2/23/12 9/10/12
f 14/24/13 8/25/13 12/26/13
f 10/19/14 3/21/14 5/4/14
f 12/11/7 8/27/15 7/12/8
f 19/15/16 10/14/16 11/28/16
f 5/29/17 3/30/17 45/31/17
f 46/32/18 45/31/19 33/16/20
f 9/33/21 2/34/21 13/35/21
f 40/36/22 39/37/22 21/38/22
f 12/26/23 9/33/24 15/39/25
f 52/40/26 51/41/26 39/37/26
f 14/9/27 36/42/28 34/43/29
f 54/44/30 53/45/30 27/46/30
f 56/47/31 55/48/32 31/49/33
f 11/28/34 6/50/35 18/51/36
f 22/52/37 21/53/37 14/54/37
f 20/55/38 24/56/38 52/57/38
f 23/58/39 24/59/39 20/60/39
f 51/61/40 23/62/40 18/63/40
f 28/64/41 27/65/41 17/66/41
f 15/67/42 26/68/42 42/69/42
f 25/70/43 26/71/43 15/72/43
f 17/73/44 27/74/45 53/75/46
f 32/76/47 31/77/47 19/78/47
f 38/79/48 44/80/48 56/81/48
f 29/82/49 30/83/49 16/84/49
f 43/85/50 29/86/50 15/87/50
f 26/68/51 25/88/51 41/89/51
f 30/90/52 29/91/52 43/92/52
f 22/93/53 16/94/53 38/79/53
f 14/9/54 21/95/54 39/96/54
f 54/44/55 49/97/55 37/98/55
f 25/99/56 13/100/56 35/101/56
f 16/94/57 30/102/57 44/80/57
f 19/103/58 31/104/58 55/105/58
f 13/106/59 2/107/59 1/108/59
f 13/106/60 1/108/60 33/109/60
f 48/110/61 46/111/61 34/43/61
f 24/112/62 23/113/62 51/41/62
f 42/114/63 41/115/63 53/116/63
f 44/117/64 43/92/65 55/48/32
f 40/36/66 38/118/66 50/119/66
f 36/120/67 39/121/67 51/122/67
f 41/123/68 35/101/68 47/124/68
f 32/125/69 20/55/69 50/126/69
f 28/127/70 19/128/70 49/97/70
f 43/85/71 37/129/72 49/130/73
f 17/131/74 47/2/2 45/1/1
f 3/132/75 4/133/76 17/131/74
f 18/63/77 6/134/77 5/135/77
f 18/63/78 5/135/78 46/111/78
f 33/109/79 45/1/1 35/3/3
f 1/22/80 9/10/80 7/12/80
f 17/136/81 4/13/81 19/15/81
f 34/137/82 33/16/82 7/18/82
f 16/138/83 14/24/83 12/26/83
f 11/6/84 10/19/84 5/4/84
f 20/139/85 19/15/85 11/28/85
f 46/32/86 5/29/86 45/31/86
f 34/137/87 46/32/18 33/16/20
f 15/39/25 9/33/24 13/35/88
f 22/140/89 40/36/89 21/38/89
f 16/138/90 12/26/90 15/39/90
f 40/36/91 52/40/91 39/37/91
f 7/7/92 14/9/92 34/43/92
f 28/127/93 54/44/93 27/46/93
f 32/141/94 56/47/94 31/49/94
f 20/139/36 11/28/34 18/51/36
f 16/142/95 22/52/95 14/54/95
f 50/126/96 20/55/96 52/57/96
f 18/143/97 23/58/97 20/60/97
f 48/110/98 51/61/98 18/63/98
f 19/144/99 28/64/99 17/66/99
f 37/98/100 15/67/100 42/69/100
f 13/145/101 25/70/101 15/72/101
f 47/124/102 17/73/44 53/75/46
f 20/146/103 32/76/103 19/78/103
f 50/126/104 38/79/104 56/81/104
f 15/147/105 29/82/105 16/84/105
f 37/129/72 43/85/71 15/87/106
f 42/69/107 26/68/107 41/89/107
f 44/117/108 30/90/108 43/92/108
f 40/148/109 22/93/109 38/79/109
f 36/42/110 14/9/110 39/96/110
f 42/69/111 54/44/111 37/98/111
f 41/123/112 25/99/112 35/101/112
f 38/79/113 16/94/113 44/80/113
f 49/130/73 19/103/114 55/105/115
f 35/3/3 13/106/116 33/109/79
f 36/42/28 48/110/117 34/43/29
f 52/40/118 24/112/118 51/41/118
f 54/149/119 42/114/119 53/116/119
f 56/47/31 44/117/64 55/48/32
f 52/40/120 40/36/120 50/119/120
f 48/150/121 36/120/121 51/122/121
f 53/75/122 41/123/122 47/124/122
f 56/81/123 32/125/123 50/126/123
f 54/44/124 28/127/124 49/97/124
f 55/105/115 43/85/71 49/130/73
f 3/132/75 17/131/74 45/1/1
f 48/110/125 18/63/125 46/111/125
