# Blender v3.0.0 OBJ File: ''
# www.blender.org
mtllib cone.mtl
o Cone_Cube.007
v -0.949663 0.440084 -1.371819
v -0.916617 0.490556 -1.404866
v -0.949663 0.440084 -1.583201
v -0.916617 0.490556 -1.550155
v -0.738281 0.440084 -1.371820
v -0.771328 0.490556 -1.404866
v -0.738281 0.440084 -1.583201
v -0.771328 0.490556 -1.550155
v -0.949663 0.490556 -1.371820
v -0.949663 0.490555 -1.583201
v -0.738281 0.490555 -1.583201
v -0.738281 0.490556 -1.371820
v -0.856987 0.796836 -1.464495
v -0.856987 0.796836 -1.490525
v -0.830957 0.796836 -1.490525
v -0.830957 0.796836 -1.464495
v -0.791204 0.592649 -1.424742
v -0.811081 0.694742 -1.444619
v -0.876864 0.694742 -1.444619
v -0.896740 0.592649 -1.424742
v -0.896740 0.592649 -1.530278
v -0.876864 0.694742 -1.510402
v -0.811081 0.694742 -1.510402
v -0.791204 0.592649 -1.530278
vt 0.033902 0.912730
vt 0.033902 0.912730
vt 0.033902 0.912730
vt 0.033902 0.912730
vt 0.033902 0.912730
vt 0.033902 0.912730
vt 0.033902 0.912730
vt 0.033902 0.912730
vt 0.051807 0.916540
vt 0.051807 0.916540
vt 0.051807 0.916540
vt 0.051807 0.916540
vt 0.051807 0.916540
vt 0.051807 0.916540
vt 0.051807 0.916540
vt 0.051807 0.916540
vt 0.051807 0.916540
vt 0.051807 0.916540
vt 0.051807 0.916540
vt 0.051807 0.916540
vt 0.051807 0.916540
vt 0.051807 0.916540
vt 0.051807 0.916540
vt 0.051807 0.916540
vt 0.051807 0.916540
vt 0.051807 0.916540
vt 0.051807 0.916540
vt 0.051807 0.916540
vt 0.051807 0.916540
vt 0.051807 0.916540
vt 0.051807 0.916540
vt 0.051807 0.916540
vn -1.0000 0.0000 0.0000
vn 0.0000 -0.0000 -1.0000
vn 1.0000 -0.0000 0.0000
vn 0.0000 0.0000 1.0000
vn 0.0000 -1.0000 0.0000
vn 0.0000 0.1911 0.9816
vn -0.0000 1.0000 0.0000
vn 0.0000 0.1911 -0.9816
vn 0.9816 0.1911 -0.0000
vn -0.9816 0.1911 0.0000
usemtl cone
s 1
f 1/1/1 9/2/1 10/3/1 3/4/1
f 3/4/2 10/3/2 11/5/2 7/6/2
f 7/6/3 11/5/3 12/7/3 5/8/3
f 5/8/4 12/7/4 9/2/4 1/1/4
f 3/9/5 7/10/5 5/11/5 1/12/5
f 19/13/6 18/14/6 16/15/6 13/16/6
f 2/17/7 4/18/7 10/19/7 9/20/7
f 4/18/7 8/21/7 11/22/7 10/19/7
f 8/21/7 6/23/7 12/24/7 11/22/7
f 6/23/7 2/17/7 9/20/7 12/24/7
f 15/25/7 14/26/7 13/16/7 16/15/7
f 23/27/8 22/28/8 14/26/8 15/25/8
f 18/14/9 23/27/9 15/25/9 16/15/9
f 22/28/10 19/13/10 13/16/10 14/26/10
f 4/18/10 2/17/10 20/29/10 21/30/10
f 6/23/9 8/21/9 24/31/9 17/32/9
f 8/21/8 4/18/8 21/30/8 24/31/8
f 2/17/6 6/23/6 17/32/6 20/29/6
o Cone.001_Cube.004
v -0.791204 0.592649 -1.424743
v -0.811081 0.694742 -1.444619
v -0.876864 0.694742 -1.444619
v -0.896740 0.592649 -1.424743
v -0.896740 0.592649 -1.530278
v -0.876864 0.694742 -1.510402
v -0.811081 0.694742 -1.510402
v -0.791204 0.592649 -1.530278
vt 0.190787 0.910190
vt 0.190787 0.910190
vt 0.190787 0.910190
vt 0.190787 0.910190
vt 0.190787 0.910190
vt 0.190787 0.910190
vt 0.190787 0.910190
vt 0.190787 0.910190
vn -0.9816 0.1911 0.0000
vn 0.9816 0.1911 0.0000
vn 0.0000 0.1911 -0.9816
vn 0.0000 0.1911 0.9816
usemtl Propane
s 1
f 29/33/11 28/34/11 27/35/11 30/36/11
f 25/37/12 32/38/12 31/39/12 26/40/12
f 32/38/13 29/33/13 30/36/13 31/39/13
f 28/34/14 25/37/14 26/40/14 27/35/14
