# Blender v3.0.0 OBJ File: ''
# www.blender.org
mtllib pallet.mtl
o Pallet_01_Mesh.008
v 0.300000 0.000000 2.225000
v 0.300000 0.060001 2.075000
v -0.300000 0.000000 2.225000
v -0.300000 0.070001 2.325000
v -0.300000 -0.000000 2.275000
v 0.300000 0.070001 2.325000
v 0.300000 -0.000000 2.275000
v 0.300000 0.070001 2.275000
v 0.000000 0.000000 2.225000
v -0.025000 0.010000 2.225000
v 0.000000 -0.000000 2.275000
v -0.025000 0.010000 2.275000
v -0.300000 0.070001 2.175000
v 0.025000 0.010000 2.225000
v -0.300000 0.060001 2.175000
v 0.025000 0.010000 2.275000
v 0.300000 0.070001 2.075000
v 0.250000 0.010000 2.225000
v -0.300000 0.060001 2.275000
v 0.250000 0.010000 2.275000
v 0.300000 0.060001 2.325000
v -0.250000 0.010000 2.225000
v 0.300000 0.060001 2.275000
v -0.250000 0.010000 2.275000
v -0.300000 0.050038 2.225000
v -0.300000 0.050038 2.275000
v -0.250000 0.050038 2.225000
v -0.250000 0.050038 2.275000
v -0.025000 0.050038 2.225000
v -0.025000 0.050038 2.275000
v 0.025000 0.050038 2.225000
v 0.025000 0.050038 2.275000
v 0.300000 0.050038 2.225000
v 0.300000 0.050038 2.275000
v 0.250000 0.050038 2.225000
v 0.250000 0.050038 2.275000
v 0.300000 0.000000 1.975000
v 0.300000 0.070001 2.125000
v -0.300000 0.000000 1.975000
v 0.300000 0.050000 1.975000
v -0.300000 0.000000 2.025000
v 0.300000 0.050000 2.525000
v 0.300000 0.000000 2.025000
v -0.300000 0.070001 2.275000
v 0.000000 0.000000 1.975000
v -0.025000 0.010000 1.975000
v 0.000000 0.000000 2.024954
v -0.025000 0.010000 2.025000
v 0.250000 0.060000 1.975000
v 0.025000 0.010000 1.975000
v 0.250000 0.060000 2.525000
v 0.025000 0.010000 2.025000
v -0.300000 0.060001 2.325000
v 0.250000 0.010000 1.975000
v 0.250000 0.050000 1.975000
v 0.250000 0.010000 2.025000
v 0.300000 0.060000 1.975000
v -0.250000 0.010000 1.975000
v 0.300000 0.060000 2.525000
v -0.250000 0.010000 2.025000
v -0.300000 0.050038 2.025000
v -0.250000 0.050000 1.975000
v -0.250000 0.050038 2.025000
v -0.025000 0.050038 2.025000
v 0.025000 0.050038 2.025000
v 0.300000 0.050038 2.025000
v 0.250000 0.050038 2.025000
v -0.025000 0.050000 1.975000
v -0.025000 0.060000 1.975000
v -0.025000 0.050037 2.525000
v -0.025000 0.060000 2.525000
v 0.025000 0.060000 2.525000
v 0.025000 0.050000 1.975000
v 0.025000 0.060000 1.975000
v 0.300000 -0.000000 2.475000
v -0.300000 0.060001 2.075000
v -0.300000 -0.000000 2.475000
v 0.300000 0.060001 2.225000
v -0.300000 -0.000000 2.525000
v 0.300000 0.060001 2.175000
v 0.300000 -0.000000 2.525000
v -0.300000 0.070001 2.125000
v 0.000000 -0.000000 2.475000
v -0.025000 0.010000 2.475000
v 0.000000 -0.000000 2.525000
v -0.025000 0.010000 2.525000
v -0.300000 0.070001 2.225000
v 0.025000 0.010000 2.475000
v -0.300000 0.060001 2.225000
v 0.025000 0.010000 2.525000
v -0.300000 0.070001 2.075000
v 0.250000 0.010000 2.475000
v 0.300000 0.060001 2.125000
v 0.250000 0.010000 2.525000
v 0.300000 0.070001 2.225000
v -0.250000 0.010000 2.475000
v 0.300000 0.070001 2.175000
v -0.250000 0.010000 2.525000
v -0.300000 0.050037 2.475000
v -0.250000 0.050037 2.475000
v -0.250000 0.050000 2.525000
v -0.025000 0.050037 2.475000
v 0.025000 0.050037 2.475000
v 0.025000 0.050037 2.525000
v 0.300000 0.050037 2.475000
v 0.250000 0.050037 2.475000
v 0.250000 0.050000 2.525000
v -0.300000 0.050000 1.975000
v -0.300000 0.060001 1.975000
v -0.300000 0.050000 2.525000
v -0.250000 0.060000 2.525000
v -0.250000 0.060000 1.975000
v -0.300000 0.060001 2.525000
v -0.300000 0.070001 2.525000
v 0.300000 0.070001 2.525000
v 0.300000 0.060001 2.475000
v 0.300000 0.070001 2.475000
v -0.300000 0.060001 2.475000
v -0.300000 0.070001 2.475000
v -0.300000 0.060001 2.425000
v -0.300000 0.070001 2.425000
v 0.300000 0.060001 2.425000
v 0.300000 0.070001 2.425000
v 0.300000 0.060001 2.375000
v 0.300000 0.070001 2.375000
v -0.300000 0.060001 2.375000
v -0.300000 0.070001 2.375000
v -0.300000 0.060001 2.025000
v -0.300000 0.070001 2.025000
v 0.300000 0.060001 2.025000
v 0.300000 0.070001 2.025000
v 0.300000 0.070001 1.975000
v -0.300000 0.070001 1.975000
v -0.300000 0.060001 2.125000
vt 1.000000 1.000000
vt 0.000000 1.000000
vt 0.000000 0.000000
vt 1.000000 1.000000
vt 0.000000 1.000000
vt 0.000000 0.000000
vt 0.000000 1.000000
vt 0.000000 0.000000
vt 1.000000 1.000000
vt 0.000000 1.000000
vt 0.000000 0.000000
vt 1.000000 0.000000
vt 1.000000 1.000000
vt 0.933859 1.000000
vt 1.000000 1.000000
vt 0.000000 1.000000
vt 0.000000 0.000000
vt 0.531555 1.000000
vt 0.448222 1.000000
vt 0.489888 0.000000
vt 0.066141 1.000000
vt 0.066141 0.000000
vt 0.468445 0.000000
vt 0.448222 1.000000
vt 0.448222 0.000000
vt 0.531555 0.000000
vt 0.933859 0.000000
vt 0.933859 1.000000
vt 0.531555 1.000000
vt 0.551778 1.000000
vt 0.468445 1.000000
vt 0.510112 0.000000
vt 1.000000 1.000000
vt 0.000000 1.000000
vt 0.000000 0.000000
vt 0.065486 1.000000
vt 0.065486 0.000000
vt 0.448222 0.000000
vt 0.065486 1.000000
vt 0.065486 0.000000
vt 0.448222 0.000000
vt 0.551778 0.000000
vt 0.934514 0.000000
vt 0.448222 0.000000
vt 0.448222 1.000000
vt 0.065486 1.000000
vt 1.000000 1.000000
vt 0.000000 1.000000
vt 0.000000 0.000000
vt 0.000000 1.000000
vt 0.000000 0.000000
vt 0.065486 0.000000
vt 0.531555 0.000000
vt 0.933859 0.000000
vt 0.531555 1.000000
vt 0.531555 0.000000
vt 0.933859 0.000000
vt 1.000000 1.000000
vt 0.000000 0.000000
vt 1.000000 1.000000
vt 0.000000 1.000000
vt 0.000000 0.000000
vt 0.933859 0.000000
vt 0.933859 1.000000
vt 1.000000 0.000000
vt 1.000000 1.000000
vt 0.531555 1.000000
vt 0.448222 1.000000
vt 0.065486 1.000000
vt 0.000000 1.000000
vt 0.000000 0.000000
vt 1.000000 1.000000
vt 0.000000 1.000000
vt 0.000000 0.000000
vt 0.000000 1.000000
vt 0.000000 0.000000
vt 1.000000 1.000000
vt 0.000000 1.000000
vt 1.000000 1.000000
vt 0.000000 1.000000
vt 0.000000 0.000000
vt 1.000000 0.000000
vt 1.000000 1.000000
vt 0.933859 1.000000
vt 1.000000 1.000000
vt 0.000000 1.000000
vt 0.000000 0.000000
vt 0.531555 1.000000
vt 0.448222 1.000000
vt 0.489888 0.000000
vt 0.066141 1.000000
vt 0.066141 0.000000
vt 0.468445 0.000000
vt 0.448222 1.000000
vt 0.448222 0.000000
vt 0.531555 0.000000
vt 0.933859 0.000000
vt 0.933859 1.000000
vt 0.531555 1.000000
vt 0.551778 1.000000
vt 0.468445 1.000000
vt 0.510112 0.000000
vt 1.000000 1.000000
vt 0.000000 1.000000
vt 0.000000 0.000000
vt 0.065486 1.000000
vt 0.065486 0.000000
vt 0.448222 0.000000
vt 0.065486 1.000000
vt 0.065486 0.000000
vt 0.448222 0.000000
vt 0.551778 0.000000
vt 0.934514 0.000000
vt 0.448222 0.000000
vt 0.448222 1.000000
vt 0.065486 1.000000
vt 1.000000 1.000000
vt 0.000000 1.000000
vt 0.000000 0.000000
vt 1.000000 1.000000
vt 0.000000 1.000000
vt 0.000000 0.000000
vt 0.531555 0.000000
vt 0.933859 0.000000
vt 0.531555 1.000000
vt 0.531555 0.000000
vt 0.933859 0.000000
vt 1.000000 1.000000
vt 0.000000 1.000000
vt 0.000000 0.000000
vt 1.000000 1.000000
vt 0.933859 0.000000
vt 0.933859 1.000000
vt 1.000000 0.000000
vt 1.000000 1.000000
vt 0.531555 1.000000
vt 0.448222 1.000000
vt 0.065486 1.000000
vt 0.065486 0.000000
vt 0.000000 1.000000
vt 0.000000 1.000000
vt 0.000000 0.000000
vt 1.000000 1.000000
vt 0.000000 1.000000
vt 0.000000 0.000000
vt 1.000000 1.000000
vt 0.000000 1.000000
vt 0.000000 0.000000
vt 1.000000 1.000000
vt 0.000000 1.000000
vt 0.000000 0.000000
vt 1.000000 1.000000
vt 0.000000 1.000000
vt 0.000000 0.000000
vt 0.000000 0.000000
vt 1.000000 1.000000
vt 0.000000 1.000000
vt 1.000000 1.000000
vt 0.000000 1.000000
vt 0.000000 0.000000
vt 0.000000 1.000000
vt 0.000000 0.000000
vt 1.000000 1.000000
vt 0.000000 1.000000
vt 0.000000 0.000000
vt 1.000000 1.000000
vt 0.000000 1.000000
vt 1.000000 0.000000
vt 1.000000 1.000000
vt 0.933859 1.000000
vt 1.000000 1.000000
vt 0.000000 0.000000
vt 0.531555 1.000000
vt 0.448222 1.000000
vt 0.489888 0.000000
vt 0.066141 1.000000
vt 0.066141 0.000000
vt 0.468445 0.000000
vt 0.448222 1.000000
vt 0.448222 0.000000
vt 0.531555 0.000000
vt 0.933859 0.000000
vt 0.933859 1.000000
vt 0.531555 1.000000
vt 0.551778 1.000000
vt 0.468445 1.000000
vt 0.510112 0.000000
vt 1.000000 1.000000
vt 0.000000 1.000000
vt 0.065486 1.000000
vt 0.065486 0.000000
vt 0.448222 0.000000
vt 0.065486 1.000000
vt 0.065486 0.000000
vt 0.448222 0.000000
vt 0.551778 0.000000
vt 0.934514 0.000000
vt 0.448222 0.000000
vt 0.448222 1.000000
vt 0.065486 1.000000
vt 0.000000 0.000000
vt 0.000000 1.000000
vt 0.000000 0.000000
vt 0.065486 0.000000
vt 0.531555 0.000000
vt 0.933859 0.000000
vt 0.531555 1.000000
vt 0.531555 0.000000
vt 0.933859 0.000000
vt 1.000000 1.000000
vt 1.000000 1.000000
vt 0.000000 1.000000
vt 0.000000 0.000000
vt 0.933859 0.000000
vt 0.933859 1.000000
vt 1.000000 0.000000
vt 1.000000 1.000000
vt 0.531555 1.000000
vt 0.448222 1.000000
vt 0.065486 1.000000
vt 0.000000 1.000000
vt 0.000000 0.000000
vt 1.000000 1.000000
vt 0.000000 1.000000
vt 0.000000 0.000000
vt 1.000000 1.000000
vt 0.000000 1.000000
vt 0.000000 0.000000
vt 1.000000 1.000000
vt 0.000000 1.000000
vt 0.000000 0.000000
vt 1.000000 1.000000
vt 0.000000 1.000000
vt 0.000000 0.000000
vt 0.000000 1.000000
vt 1.000000 1.000000
vt 0.000000 1.000000
vt 0.000000 0.000000
vt 1.000000 1.000000
vt 0.000000 1.000000
vt 0.000000 0.000000
vt 1.000000 1.000000
vt 0.000000 1.000000
vt 0.000000 0.000000
vt 1.000000 1.000000
vt 0.000000 1.000000
vt 0.000000 0.000000
vt 0.000000 0.000000
vt 1.000000 1.000000
vt 0.000000 1.000000
vt 0.000000 0.000000
vt 1.000000 1.000000
vt 0.000000 1.000000
vt 0.000000 0.000000
vt 1.000000 1.000000
vt 0.000000 1.000000
vt 0.000000 0.000000
vt 1.000000 1.000000
vt 0.000000 1.000000
vt 0.000000 0.000000
vt 0.000000 0.000000
vt 1.000000 1.000000
vt 0.000000 1.000000
vt 1.000000 1.000000
vt 0.000000 1.000000
vt 0.000000 0.000000
vt 0.000000 1.000000
vt 0.000000 0.000000
vt 1.000000 0.000000
vt 1.000000 0.000000
vt 1.000000 0.000000
vt 1.000000 0.000000
vt 1.000000 0.000000
vt 0.531555 0.000000
vt 1.000000 0.000000
vt 0.934514 1.000000
vt 0.065486 0.000000
vt 1.000000 0.000000
vt 0.933859 1.000000
vt 1.000000 0.000000
vt 1.000000 0.000000
vt 1.000000 0.000000
vt 1.000000 0.000000
vt 1.000000 0.000000
vt 1.000000 0.000000
vt 0.531555 0.000000
vt 1.000000 0.000000
vt 0.934514 1.000000
vt 0.065486 0.000000
vt 1.000000 0.000000
vt 0.933859 1.000000
vt 1.000000 0.000000
vt 1.000000 0.000000
vt 1.000000 0.000000
vt 1.000000 0.000000
vt 1.000000 0.000000
vt 1.000000 0.000000
vt 1.000000 0.000000
vt 1.000000 0.000000
vt 1.000000 0.000000
vt 1.000000 0.000000
vt 1.000000 0.000000
vt 0.531555 0.000000
vt 0.934514 1.000000
vt 0.065486 0.000000
vt 1.000000 0.000000
vt 0.933859 1.000000
vt 1.000000 0.000000
vt 1.000000 0.000000
vt 1.000000 0.000000
vt 1.000000 0.000000
vt 1.000000 0.000000
vt 1.000000 0.000000
vt 1.000000 0.000000
vt 1.000000 0.000000
vt 1.000000 0.000000
vt 1.000000 0.000000
vt 1.000000 0.000000
vt 1.000000 0.000000
vt 1.000000 0.000000
vt 1.000000 0.000000
vt 1.000000 0.000000
vt 1.000000 0.000000
vn 0.0000 0.0000 1.0000
vn 1.0000 0.0000 0.0000
vn 0.0000 1.0000 0.0000
vn 0.0000 0.0000 -1.0000
vn 0.0000 -1.0000 -0.0000
vn -1.0000 0.0000 0.0000
vn 0.0000 1.0000 -0.0008
vn 0.0000 -0.0029 1.0000
vn 0.0001 -0.0004 1.0000
vn 0.0000 -0.0027 1.0000
vn 0.0001 -0.0005 1.0000
vn -0.0000 -0.0007 1.0000
vn -0.0001 -0.0025 1.0000
vn 0.0000 -1.0000 0.0001
vn 0.0000 1.0000 0.0008
usemtl Pallets_MAT
s 1
f 6/1/1 4/2/1 53/3/1
f 8/4/2 6/5/2 21/6/2
f 8/4/3 44/7/3 4/8/3
f 17/9/2 38/10/2 93/11/2
f 25/12/3 26/13/3 28/14/3
f 91/15/4 17/16/4 2/17/4
f 10/18/4 14/19/4 9/20/4
f 24/21/1 5/22/1 11/23/1
f 32/24/3 31/25/3 29/26/3
f 5/27/5 3/28/5 9/29/5
f 16/30/1 12/31/1 11/32/1
f 97/33/3 13/34/3 87/35/3
f 18/36/4 1/37/4 9/38/4
f 20/39/3 18/40/3 14/41/3
f 16/30/1 11/42/1 7/43/1
f 11/44/5 9/45/5 1/46/5
f 82/47/6 91/48/6 76/49/6
f 34/50/3 33/51/3 35/52/3
f 10/18/4 9/53/4 3/54/4
f 12/55/3 10/56/3 22/57/3
f 4/58/6 44/7/6 19/59/6
f 44/60/4 8/61/4 23/62/4
f 27/63/2 28/14/2 24/64/2
f 25/12/4 27/63/4 22/57/4
f 26/13/6 25/12/6 3/65/6
f 28/14/1 26/13/1 5/66/1
f 30/67/6 29/26/6 10/56/6
f 32/24/1 30/67/1 12/55/1
f 31/25/2 32/24/2 16/68/2
f 29/26/4 31/25/4 14/41/4
f 36/69/6 35/52/6 18/40/6
f 34/50/1 36/69/1 20/39/1
f 33/51/2 34/50/2 7/70/2
f 35/52/4 33/51/4 1/71/4
f 59/72/3 57/73/3 49/74/3
f 59/72/1 51/75/1 107/76/1
f 21/77/5 53/78/5 19/59/5
f 130/79/5 128/80/5 109/81/5
f 108/82/7 61/83/7 63/84/7
f 78/85/5 89/86/5 15/87/5
f 46/88/4 50/89/4 45/90/4
f 60/91/8 41/92/9 47/93/10
f 65/94/7 73/95/7 68/96/7
f 41/97/5 39/98/5 45/99/5
f 52/100/11 48/101/12 47/102/10
f 51/103/6 49/104/6 55/105/6
f 54/106/4 37/107/4 45/108/4
f 56/109/3 54/110/3 50/111/3
f 52/100/11 47/112/10 43/113/13
f 47/114/5 45/115/5 37/116/5
f 38/117/1 82/118/1 134/119/1
f 107/120/5 55/121/5 40/122/5
f 46/88/4 45/123/4 39/124/4
f 48/125/3 46/126/3 58/127/3
f 57/128/2 59/129/2 42/130/2
f 49/131/4 57/73/4 40/122/4
f 62/132/2 63/84/2 60/133/2
f 108/82/4 62/132/4 58/127/4
f 61/83/6 108/82/6 39/134/6
f 63/84/1 61/83/1 41/135/9
f 64/136/6 68/96/6 46/126/6
f 65/94/1 64/136/1 48/125/12
f 73/95/2 65/94/2 52/137/2
f 68/96/4 73/95/4 50/111/4
f 67/138/6 55/139/6 54/110/6
f 66/140/1 67/138/1 56/109/1
f 40/122/2 66/140/2 43/141/2
f 55/139/4 40/122/4 37/142/4
f 71/143/6 69/144/6 68/145/6
f 72/146/1 71/147/1 70/148/1
f 74/149/2 72/150/2 104/151/2
f 69/152/4 74/153/4 73/154/4
f 72/146/3 74/153/3 69/155/3
f 70/156/14 68/157/14 73/154/14
f 95/158/1 87/159/1 89/160/1
f 97/33/2 95/161/2 78/162/2
f 133/163/4 132/164/4 57/165/4
f 129/166/6 133/167/6 109/81/6
f 99/168/15 110/169/15 101/170/15
f 132/171/3 133/167/3 129/172/3
f 84/173/4 88/174/4 83/175/4
f 98/176/1 79/177/1 85/178/1
f 104/179/3 103/180/3 102/181/3
f 79/182/5 77/183/5 83/184/5
f 90/185/1 86/186/1 85/187/1
f 93/188/5 134/189/5 76/49/5
f 92/190/4 75/191/4 83/192/4
f 94/193/3 92/194/3 88/195/3
f 90/185/1 85/196/1 81/197/1
f 85/198/5 83/199/5 75/200/5
f 17/9/3 91/48/3 82/201/3
f 42/202/15 105/203/15 106/204/15
f 84/173/4 83/205/4 77/206/4
f 86/207/3 84/208/3 96/209/3
f 87/210/6 13/34/6 15/87/6
f 13/211/4 97/212/4 80/213/4
f 100/214/2 101/170/2 98/215/2
f 99/168/4 100/214/4 96/209/4
f 110/169/6 99/168/6 77/216/6
f 101/170/1 110/169/1 79/217/1
f 70/218/6 102/181/6 84/208/6
f 104/179/1 70/218/1 86/207/1
f 103/180/2 104/179/2 90/219/2
f 102/181/4 103/180/4 88/195/4
f 107/220/6 106/204/6 92/194/6
f 42/202/1 107/220/1 94/193/1
f 105/203/2 42/202/2 81/221/2
f 106/204/4 105/203/4 75/222/4
f 113/223/6 109/224/6 108/225/6
f 111/226/1 113/227/1 110/228/1
f 112/229/2 111/230/2 101/231/2
f 109/232/4 112/233/4 62/234/4
f 111/226/3 112/233/3 109/81/3
f 110/169/5 108/235/5 62/234/5
f 115/236/1 114/237/1 113/238/1
f 117/239/2 115/240/2 59/241/2
f 119/242/4 117/243/4 116/244/4
f 114/245/6 119/246/6 118/247/6
f 117/239/3 119/246/3 114/248/3
f 59/72/5 113/227/5 118/247/5
f 123/249/1 121/250/1 120/251/1
f 125/252/2 123/253/2 122/254/2
f 127/255/4 125/256/4 124/257/4
f 121/258/6 127/259/6 126/260/6
f 125/252/3 127/259/3 121/261/3
f 122/262/5 120/263/5 126/260/5
f 131/264/1 129/265/1 128/266/1
f 132/171/2 131/267/2 130/268/2
f 21/269/1 6/1/1 53/3/1
f 23/270/2 8/4/2 21/6/2
f 6/271/3 8/4/3 4/8/3
f 2/272/2 17/9/2 93/11/2
f 27/63/3 25/12/3 28/14/3
f 76/273/4 91/15/4 2/17/4
f 12/31/1 24/21/1 11/23/1
f 30/67/3 32/24/3 29/26/3
f 11/274/5 5/27/5 9/29/5
f 95/275/3 97/33/3 87/35/3
f 14/19/4 18/36/4 9/38/4
f 16/68/3 20/39/3 14/41/3
f 20/276/1 16/30/1 7/43/1
f 7/277/5 11/44/5 1/46/5
f 134/278/6 82/47/6 76/49/6
f 36/69/3 34/50/3 35/52/3
f 22/279/4 10/18/4 3/54/4
f 24/64/3 12/55/3 22/57/3
f 53/280/6 4/58/6 19/59/6
f 19/281/4 44/60/4 23/62/4
f 22/57/2 27/63/2 24/64/2
f 3/65/4 25/12/4 22/57/4
f 5/66/6 26/13/6 3/65/6
f 24/64/1 28/14/1 5/66/1
f 12/55/6 30/67/6 10/56/6
f 16/68/1 32/24/1 12/55/1
f 14/41/2 31/25/2 16/68/2
f 10/56/4 29/26/4 14/41/4
f 20/39/6 36/69/6 18/40/6
f 7/70/1 34/50/1 20/39/1
f 1/71/2 33/51/2 7/70/2
f 18/40/4 35/52/4 1/71/4
f 51/282/3 59/72/3 49/74/3
f 42/283/1 59/72/1 107/76/1
f 23/270/5 21/77/5 19/59/5
f 57/284/5 130/79/5 109/81/5
f 62/132/7 108/82/7 63/84/7
f 80/285/5 78/85/5 15/87/5
f 48/101/12 60/91/8 47/93/10
f 64/136/7 65/94/7 68/96/7
f 47/286/5 41/97/5 45/99/5
f 107/287/6 51/103/6 55/105/6
f 50/89/4 54/106/4 45/108/4
f 52/137/3 56/109/3 50/111/3
f 56/288/1 52/100/11 43/113/13
f 43/289/5 47/114/5 37/116/5
f 93/290/1 38/117/1 134/119/1
f 42/283/5 107/120/5 40/122/5
f 58/291/4 46/88/4 39/124/4
f 60/133/3 48/125/3 58/127/3
f 40/292/2 57/128/2 42/130/2
f 55/293/4 49/131/4 40/122/4
f 58/127/2 62/132/2 60/133/2
f 39/134/4 108/82/4 58/127/4
f 41/135/6 61/83/6 39/134/6
f 60/133/8 63/84/1 41/135/9
f 48/125/6 64/136/6 46/126/6
f 52/137/11 65/94/1 48/125/12
f 50/111/2 73/95/2 52/137/2
f 46/126/4 68/96/4 50/111/4
f 56/109/6 67/138/6 54/110/6
f 43/141/13 66/140/1 56/109/1
f 37/142/2 40/122/2 43/141/2
f 54/110/4 55/139/4 37/142/4
f 70/294/6 71/143/6 68/145/6
f 104/295/1 72/146/1 70/148/1
f 73/296/2 74/149/2 104/151/2
f 68/297/4 69/152/4 73/154/4
f 71/298/3 72/146/3 69/155/3
f 104/295/14 70/156/14 73/154/14
f 78/299/1 95/158/1 89/160/1
f 80/285/2 97/33/2 78/162/2
f 109/300/4 133/163/4 57/165/4
f 128/301/6 129/166/6 109/81/6
f 100/214/15 99/168/15 101/170/15
f 131/302/3 132/171/3 129/172/3
f 86/186/1 98/176/1 85/178/1
f 70/218/3 104/179/3 102/181/3
f 85/303/5 79/182/5 83/184/5
f 2/272/5 93/188/5 76/49/5
f 88/174/4 92/190/4 83/192/4
f 90/219/3 94/193/3 88/195/3
f 94/304/1 90/185/1 81/197/1
f 81/305/5 85/198/5 75/200/5
f 38/306/3 17/9/3 82/201/3
f 107/220/15 42/202/15 106/204/15
f 96/307/4 84/173/4 77/206/4
f 98/215/3 86/207/3 96/209/3
f 89/308/6 87/210/6 15/87/6
f 15/309/4 13/211/4 80/213/4
f 96/209/2 100/214/2 98/215/2
f 77/216/4 99/168/4 96/209/4
f 79/217/6 110/169/6 77/216/6
f 98/215/1 101/170/1 79/217/1
f 86/207/6 70/218/6 84/208/6
f 90/219/1 104/179/1 86/207/1
f 88/195/2 103/180/2 90/219/2
f 84/208/4 102/181/4 88/195/4
f 94/193/6 107/220/6 92/194/6
f 81/221/1 42/202/1 94/193/1
f 75/222/2 105/203/2 81/221/2
f 92/194/4 106/204/4 75/222/4
f 110/310/6 113/223/6 108/225/6
f 101/311/1 111/226/1 110/228/1
f 62/312/2 112/229/2 101/231/2
f 108/82/4 109/232/4 62/234/4
f 113/313/3 111/226/3 109/81/3
f 101/311/5 110/169/5 62/234/5
f 59/314/1 115/236/1 113/238/1
f 116/315/2 117/239/2 59/241/2
f 118/316/4 119/242/4 116/244/4
f 113/313/6 114/245/6 118/247/6
f 115/317/3 117/239/3 114/248/3
f 116/315/5 59/72/5 118/247/5
f 122/318/1 123/249/1 120/251/1
f 124/319/2 125/252/2 122/254/2
f 126/320/4 127/255/4 124/257/4
f 120/321/6 121/258/6 126/260/6
f 123/322/3 125/252/3 121/261/3
f 124/319/5 122/262/5 126/260/5
f 130/323/1 131/264/1 128/266/1
f 57/284/2 132/171/2 130/268/2
