# Blender v3.0.0 OBJ File: 'bolt.blend'
# www.blender.org
mtllib bolt.mtl
o Icosphere
v 0.051588 0.223607 0.158775
v -0.135063 0.223607 0.098127
v -0.135063 0.223607 -0.098127
v 0.051588 0.223607 -0.158775
v 0.166947 0.223607 0.000000
v 0.447212 0.223607 0.000000
v 0.138193 0.223607 0.425320
v -0.361800 0.223607 0.262860
v -0.361800 0.223607 -0.262860
v 0.138193 0.223607 -0.425320
v 0.166947 -0.325958 0.000000
v 0.051588 -0.325958 0.158775
v -0.135062 -0.325958 0.098127
v -0.135062 -0.325958 -0.098127
v 0.051588 -0.325958 -0.158775
v -0.000001 0.455898 0.000000
v 0.322991 0.357920 -0.000000
v 0.099807 0.357920 0.307181
v -0.261305 0.357920 0.189847
v -0.261305 0.357920 -0.189847
v 0.099807 0.357920 -0.307181
vt 0.382567 0.314921
vt 0.282316 0.314921
vt 0.282316 0.314921
vt 0.382567 0.314921
vt 0.545455 0.314921
vt 0.727273 0.314921
vt 0.727273 0.314921
vt 0.545455 0.314921
vt 0.181819 0.314921
vt 0.363637 0.314921
vt 0.363637 0.314921
vt 0.181819 0.314921
vt 0.909091 0.314921
vt 0.909091 0.314921
vt 0.808594 0.314921
vt 0.708342 0.314921
vt 0.545455 0.314921
vt 0.808594 0.314921
vt 0.708342 0.314921
vt 0.545455 0.314921
vt 0.272728 0.472382
vt 0.000000 0.314921
vt 0.090910 0.472382
vt 0.818182 0.472382
vt 0.636364 0.472382
vt 0.454546 0.472382
vn 0.8090 0.0000 0.5878
vn -0.2474 0.5991 -0.7615
vn 0.6478 0.5991 0.4706
vn -0.8007 0.5991 0.0000
vn 0.6478 0.5991 -0.4706
vn -0.2474 0.5991 0.7615
vn 0.0000 -1.0000 0.0000
vn -0.3090 -0.0000 -0.9511
vn -0.3090 -0.0000 0.9511
vn 0.8090 0.0000 -0.5878
vn -1.0000 -0.0000 0.0000
vn 0.2840 0.9363 0.2064
vn -0.1085 0.9363 0.3339
vn -0.3511 0.9363 0.0000
vn -0.1085 0.9363 -0.3339
vn 0.2840 0.9363 -0.2064
usemtl Gray
s off
f 5/1/1 1/2/1 12/3/1 11/4/1
f 10/5/2 9/6/2 20/7/2 21/8/2
f 7/9/3 6/10/3 17/11/3 18/12/3
f 9/6/4 8/13/4 19/14/4 20/7/4
f 6/10/5 10/5/5 21/8/5 17/11/5
f 8/13/6 7/9/6 18/12/6 19/14/6
f 1/2/7 5/1/7 6/10/7 7/9/7
f 2/15/7 1/2/7 7/9/7 8/13/7
f 3/16/7 2/15/7 8/13/7 9/6/7
f 4/17/7 3/16/7 9/6/7 10/5/7
f 5/1/7 4/17/7 10/5/7 6/10/7
f 11/4/7 12/3/7 13/18/7 14/19/7 15/20/7
f 3/16/8 4/17/8 15/20/8 14/19/8
f 1/2/9 2/15/9 13/18/9 12/3/9
f 4/17/10 5/1/10 11/4/10 15/20/10
f 2/15/11 3/16/11 14/19/11 13/18/11
f 18/12/12 17/11/12 16/21/12
f 19/22/13 18/12/13 16/23/13
f 20/7/14 19/14/14 16/24/14
f 21/8/15 20/7/15 16/25/15
f 17/11/16 21/8/16 16/26/16
