# Blender v2.81 (sub 16) OBJ File: 'piston_frame.blend'
# www.blender.org
mtllib piston_frame.mtl
o Cube_Cube.002
v -0.165000 -0.500000 0.500000
v -0.165000 -0.500000 -0.500000
v 0.165000 -0.500000 0.500000
v 0.165000 0.500000 0.500000
v 0.165000 -0.500000 -0.500000
v 0.165000 0.500000 -0.500000
v -0.090157 0.500000 0.500000
v -0.165000 0.381645 0.500000
v -0.165000 0.381645 -0.500000
v -0.090157 0.500000 -0.500000
vt 0.625000 0.500000
vt 0.845411 0.500000
vt 0.845411 0.750000
vt 0.625000 0.750000
vt 0.375000 0.500000
vt 0.375000 0.750000
vt 0.375000 0.000000
vt 0.595411 0.000000
vt 0.595411 0.250000
vt 0.375000 0.250000
vt 0.125000 0.500000
vt 0.125000 0.750000
vt 0.625000 0.279589
vt 0.625000 0.000000
vt 0.625000 0.250000
vt 0.625000 0.970411
vt 0.595411 1.000000
vt 0.375000 1.000000
vn 0.0000 1.0000 0.0000
vn 1.0000 0.0000 0.0000
vn -1.0000 0.0000 0.0000
vn 0.0000 -1.0000 0.0000
vn 0.0000 0.0000 -1.0000
vn -0.8452 0.5345 0.0000
vn 0.0000 0.0000 1.0000
usemtl Material.001
s off
f 6/1/1 10/2/1 7/3/1 4/4/1
f 5/5/2 6/1/2 4/4/2 3/6/2
f 1/7/3 8/8/3 9/9/3 2/10/3
f 2/11/4 5/5/4 3/6/4 1/12/4
f 2/10/5 9/9/5 10/13/5 6/1/5 5/5/5
f 7/14/6 10/15/6 9/9/6 8/8/6
f 3/6/7 4/4/7 7/16/7 8/17/7 1/18/7
o Cube.001_Cube
v -0.217971 -0.429525 0.366225
v -0.217971 0.302925 0.366225
v -0.217971 -0.429525 -0.366225
v -0.217971 0.302925 -0.366225
v -0.104861 -0.429525 0.366225
v -0.104861 0.302925 0.366225
v -0.104861 -0.429525 -0.366225
v -0.104861 0.302925 -0.366225
v -0.104861 -0.354538 0.291238
v -0.217971 -0.354538 0.291238
v -0.104861 -0.354538 -0.291238
v -0.217971 -0.354538 -0.291238
v -0.104861 0.227938 0.291238
v -0.217971 0.227938 0.291238
v -0.104861 0.227938 -0.291238
v -0.217971 0.227938 -0.291238
vt 0.375000 0.000000
vt 0.625000 0.000000
vt 0.599405 0.025595
vt 0.400595 0.025595
vt 0.400595 0.224405
vt 0.375000 0.250000
vt 0.625000 0.250000
vt 0.625000 0.500000
vt 0.375000 0.500000
vt 0.599405 0.525595
vt 0.400595 0.525595
vt 0.400595 0.724405
vt 0.375000 0.750000
vt 0.625000 0.750000
vt 0.625000 1.000000
vt 0.375000 1.000000
vt 0.125000 0.500000
vt 0.125000 0.750000
vt 0.875000 0.500000
vt 0.875000 0.750000
vt 0.375000 0.324442
vt 0.375000 0.425558
vt 0.625000 0.425558
vt 0.625000 0.324442
vt 0.599405 0.724405
vt 0.599405 0.224405
vt 0.199442 0.750000
vt 0.300558 0.750000
vt 0.300558 0.500000
vt 0.199442 0.500000
vt 0.699442 0.750000
vt 0.800558 0.750000
vt 0.800558 0.500000
vt 0.699442 0.500000
vt 0.375000 0.824442
vt 0.375000 0.925558
vt 0.625000 0.925558
vt 0.625000 0.824442
vn -1.0000 0.0000 0.0000
vn 0.0000 0.0000 -1.0000
vn 1.0000 0.0000 0.0000
vn 0.0000 0.0000 1.0000
vn 0.0000 -1.0000 0.0000
vn 0.0000 1.0000 0.0000
usemtl Yellow
s off
f 11/19/8 12/20/8 24/21/8 20/22/8 22/23/8 13/24/8
f 13/24/9 14/25/9 18/26/9 17/27/9
f 17/27/10 18/26/10 25/28/10 21/29/10 19/30/10 15/31/10
f 15/31/11 16/32/11 12/33/11 11/34/11
f 13/35/12 17/27/12 15/31/12 11/36/12
f 18/26/13 14/37/13 12/38/13 16/32/13
f 22/39/11 21/40/11 25/41/11 26/42/11
f 15/31/10 19/30/10 23/43/10 25/28/10 18/26/10 16/32/10
f 13/24/8 22/23/8 26/44/8 24/21/8 12/20/8 14/25/8
f 20/45/13 19/46/13 21/47/13 22/48/13
f 23/49/12 24/50/12 26/51/12 25/52/12
f 19/53/9 20/54/9 24/55/9 23/56/9
